<svg xmlns="http://www.w3.org/2000/svg" viewBox="0 0 399.655 60"><g id="b70a7de2-a7f9-4142-b1f8-36b4add29d40" fill="#fff"><path d="M5.89 12.32L5.89 12.32Q5.75 12.32 5.61 12.21L5.61 12.21L0.87 8.96L0.87 8.96Q0.66 8.82 0.56 8.68L0.56 8.68L0.56 8.68Q0.46 8.54 0.46 8.34L0.46 8.34L0.46 8.01L0.46 8.01Q0.46 7.81 0.55 7.67L0.55 7.67L0.55 7.67Q0.64 7.53 0.87 7.38L0.87 7.38L5.61 4.14L5.61 4.14Q5.77 4.02 5.89 4.02L5.89 4.02L5.89 4.02Q6.02 4.02 6.10 4.09L6.10 4.09L6.10 4.09Q6.17 4.17 6.17 4.31L6.17 4.31L6.17 5.39L6.17 5.39Q6.17 5.57 6.09 5.68L6.09 5.68L6.09 5.68Q6.01 5.78 5.82 5.91L5.82 5.91L2.44 8.18L5.82 10.44L5.82 10.44Q6.01 10.57 6.09 10.68L6.09 10.68L6.09 10.68Q6.17 10.78 6.17 10.95L6.17 10.95L6.17 12.04L6.17 12.04Q6.17 12.17 6.09 12.24L6.09 12.24L6.09 12.24Q6.01 12.32 5.89 12.32L5.89 12.32ZM8.50 13.09L8.50 13.09Q8.36 13.09 8.26 12.99L8.26 12.99L8.26 12.99Q8.16 12.89 8.16 12.75L8.16 12.75L8.16 3.64L8.16 3.64Q8.16 3.49 8.25 3.39L8.25 3.39L8.25 3.39Q8.34 3.29 8.50 3.29L8.50 3.29L12.12 3.29L12.12 3.29Q13.85 3.29 14.82 4.09L14.82 4.09L14.82 4.09Q15.79 4.89 15.79 6.36L15.79 6.36L15.79 6.36Q15.79 7.38 15.30 8.07L15.30 8.07L15.30 8.07Q14.81 8.76 13.93 9.07L13.93 9.07L15.96 12.64L15.96 12.64Q16.00 12.73 16.00 12.80L16.00 12.80L16.00 12.80Q16.00 12.92 15.91 13.01L15.91 13.01L15.91 13.01Q15.82 13.09 15.71 13.09L15.71 13.09L14.42 13.09L14.42 13.09Q14.20 13.09 14.07 12.98L14.07 12.98L14.07 12.98Q13.94 12.88 13.85 12.71L13.85 12.71L12.05 9.39L10.14 9.39L10.14 12.75L10.14 12.75Q10.14 12.89 10.04 12.99L10.04 12.99L10.04 12.99Q9.94 13.09 9.79 13.09L9.79 13.09L8.50 13.09ZM10.14 7.80L12.08 7.80L12.08 7.80Q12.92 7.80 13.34 7.43L13.34 7.43L13.34 7.43Q13.76 7.06 13.76 6.34L13.76 6.34L13.76 6.34Q13.76 5.63 13.34 5.24L13.34 5.24L13.34 5.24Q12.92 4.86 12.08 4.86L12.08 4.86L10.14 4.86L10.14 7.80ZM17.71 4.62L17.71 4.62Q17.57 4.62 17.47 4.52L17.47 4.52L17.47 4.52Q17.37 4.42 17.37 4.28L17.37 4.28L17.37 3.26L17.37 3.26Q17.37 3.11 17.47 3.01L17.47 3.01L17.47 3.01Q17.57 2.91 17.71 2.91L17.71 2.91L19.00 2.91L19.00 2.91Q19.15 2.91 19.25 3.01L19.25 3.01L19.25 3.01Q19.35 3.11 19.35 3.26L19.35 3.26L19.35 4.28L19.35 4.28Q19.35 4.42 19.24 4.52L19.24 4.52L19.24 4.52Q19.14 4.62 19.00 4.62L19.00 4.62L17.71 4.62ZM17.77 13.09L17.77 13.09Q17.63 13.09 17.53 12.99L17.53 12.99L17.53 12.99Q17.43 12.89 17.43 12.75L17.43 12.75L17.43 6.15L17.43 6.15Q17.43 5.99 17.53 5.90L17.53 5.90L17.53 5.90Q17.63 5.81 17.77 5.81L17.77 5.81L18.96 5.81L18.96 5.81Q19.10 5.81 19.19 5.91L19.19 5.91L19.19 5.91Q19.29 6.01 19.29 6.15L19.29 6.15L19.29 12.75L19.29 12.75Q19.29 12.89 19.19 12.99L19.19 12.99L19.19 12.99Q19.10 13.09 18.96 13.09L18.96 13.09L17.77 13.09ZM24.29 13.23L24.29 13.23Q22.75 13.23 21.83 12.38L21.83 12.38L21.83 12.38Q20.92 11.52 20.86 10.01L20.86 10.01L20.85 9.45L20.86 8.89L20.86 8.89Q20.92 7.38 21.83 6.52L21.83 6.52L21.83 6.52Q22.75 5.67 24.29 5.67L24.29 5.67L24.29 5.67Q25.40 5.67 26.16 6.06L26.16 6.06L26.16 6.06Q26.92 6.45 27.29 7.02L27.29 7.02L27.29 7.02Q27.66 7.59 27.69 8.11L27.69 8.11L27.69 8.11Q27.71 8.25 27.60 8.34L27.60 8.34L27.60 8.34Q27.50 8.44 27.36 8.44L27.36 8.44L26.11 8.44L26.11 8.44Q25.96 8.44 25.89 8.38L25.89 8.38L25.89 8.38Q25.82 8.32 25.75 8.15L25.75 8.15L25.75 8.15Q25.54 7.62 25.19 7.38L25.19 7.38L25.19 7.38Q24.85 7.14 24.32 7.14L24.32 7.14L24.32 7.14Q23.60 7.14 23.21 7.59L23.21 7.59L23.21 7.59Q22.81 8.04 22.78 8.96L22.78 8.96L22.76 9.48L22.78 9.94L22.78 9.94Q22.86 11.76 24.32 11.76L24.32 11.76L24.32 11.76Q24.86 11.76 25.20 11.53L25.20 11.53L25.20 11.53Q25.54 11.30 25.75 10.75L25.75 10.75L25.75 10.75Q25.80 10.60 25.88 10.53L25.88 10.53L25.88 10.53Q25.96 10.46 26.11 10.46L26.11 10.46L27.36 10.46L27.36 10.46Q27.50 10.46 27.60 10.56L27.60 10.56L27.60 10.56Q27.71 10.65 27.69 10.79L27.69 10.79L27.69 10.79Q27.66 11.28 27.30 11.85L27.30 11.85L27.30 11.85Q26.94 12.42 26.18 12.82L26.18 12.82L26.18 12.82Q25.42 13.23 24.29 13.23L24.29 13.23ZM29.50 13.09L29.50 13.09Q29.36 13.09 29.26 12.99L29.26 12.99L29.26 12.99Q29.16 12.89 29.16 12.75L29.16 12.75L29.16 3.49L29.16 3.49Q29.16 3.33 29.26 3.24L29.26 3.24L29.26 3.24Q29.36 3.15 29.50 3.15L29.50 3.15L30.77 3.15L30.77 3.15Q30.93 3.15 31.02 3.24L31.02 3.24L31.02 3.24Q31.11 3.33 31.11 3.49L31.11 3.49L31.11 6.68L31.11 6.68Q31.95 5.67 33.36 5.67L33.36 5.67L33.36 5.67Q34.65 5.67 35.42 6.52L35.42 6.52L35.42 6.52Q36.19 7.36 36.19 8.82L36.19 8.82L36.19 12.75L36.19 12.75Q36.19 12.89 36.10 12.99L36.10 12.99L36.10 12.99Q36.01 13.09 35.85 13.09L35.85 13.09L34.58 13.09L34.58 13.09Q34.43 13.09 34.33 12.99L34.33 12.99L34.33 12.99Q34.23 12.89 34.23 12.75L34.23 12.75L34.23 8.90L34.23 8.90Q34.23 8.09 33.83 7.64L33.83 7.64L33.83 7.64Q33.43 7.18 32.69 7.18L32.69 7.18L32.69 7.18Q31.98 7.18 31.54 7.64L31.54 7.64L31.54 7.64Q31.11 8.11 31.11 8.90L31.11 8.90L31.11 12.75L31.11 12.75Q31.11 12.89 31.02 12.99L31.02 12.99L31.02 12.99Q30.93 13.09 30.77 13.09L30.77 13.09L29.50 13.09ZM40.63 13.09L40.63 13.09Q40.49 13.09 40.39 12.99L40.39 12.99L40.39 12.99Q40.29 12.89 40.29 12.75L40.29 12.75L40.29 5.04L37.70 5.04L37.70 5.04Q37.56 5.04 37.46 4.94L37.46 4.94L37.46 4.94Q37.37 4.84 37.37 4.69L37.37 4.69L37.37 3.64L37.37 3.64Q37.37 3.49 37.46 3.39L37.46 3.39L37.46 3.39Q37.55 3.29 37.70 3.29L37.70 3.29L44.86 3.29L44.86 3.29Q45.01 3.29 45.11 3.39L45.11 3.39L45.11 3.39Q45.21 3.49 45.21 3.64L45.21 3.64L45.21 4.69L45.21 4.69Q45.21 4.84 45.11 4.94L45.11 4.94L45.11 4.94Q45.01 5.04 44.86 5.04L44.86 5.04L42.28 5.04L42.28 12.75L42.28 12.75Q42.28 12.89 42.19 12.99L42.19 12.99L42.19 12.99Q42.10 13.09 41.94 13.09L41.94 13.09L40.63 13.09ZM46.73 4.62L46.73 4.62Q46.59 4.62 46.49 4.52L46.49 4.52L46.49 4.52Q46.40 4.42 46.40 4.28L46.40 4.28L46.40 3.26L46.40 3.26Q46.40 3.11 46.49 3.01L46.49 3.01L46.49 3.01Q46.59 2.91 46.73 2.91L46.73 2.91L48.02 2.91L48.02 2.91Q48.17 2.91 48.27 3.01L48.27 3.01L48.27 3.01Q48.37 3.11 48.37 3.26L48.37 3.26L48.37 4.28L48.37 4.28Q48.37 4.42 48.27 4.52L48.27 4.52L48.27 4.52Q48.16 4.62 48.02 4.62L48.02 4.62L46.73 4.62ZM46.79 13.09L46.79 13.09Q46.65 13.09 46.55 12.99L46.55 12.99L46.55 12.99Q46.45 12.89 46.45 12.75L46.45 12.75L46.45 6.15L46.45 6.15Q46.45 5.99 46.55 5.90L46.55 5.90L46.55 5.90Q46.65 5.81 46.79 5.81L46.79 5.81L47.98 5.81L47.98 5.81Q48.12 5.81 48.22 5.91L48.22 5.91L48.22 5.91Q48.31 6.01 48.31 6.15L48.31 6.15L48.31 12.75L48.31 12.75Q48.31 12.89 48.22 12.99L48.22 12.99L48.22 12.99Q48.12 13.09 47.98 13.09L47.98 13.09L46.79 13.09ZM50.51 13.09L50.51 13.09Q50.37 13.09 50.27 12.99L50.27 12.99L50.27 12.99Q50.18 12.89 50.18 12.75L50.18 12.75L50.18 3.49L50.18 3.49Q50.18 3.33 50.27 3.24L50.27 3.24L50.27 3.24Q50.37 3.15 50.51 3.15L50.51 3.15L51.69 3.15L51.69 3.15Q51.84 3.15 51.93 3.24L51.93 3.24L51.93 3.24Q52.02 3.33 52.02 3.49L52.02 3.49L52.02 12.75L52.02 12.75Q52.02 12.89 51.93 12.99L51.93 12.99L51.93 12.99Q51.84 13.09 51.69 13.09L51.69 13.09L50.51 13.09ZM54.24 13.09L54.24 13.09Q54.10 13.09 54.00 12.99L54.00 12.99L54.00 12.99Q53.90 12.89 53.90 12.75L53.90 12.75L53.90 3.49L53.90 3.49Q53.90 3.33 54.00 3.24L54.00 3.24L54.00 3.24Q54.10 3.15 54.24 3.15L54.24 3.15L55.41 3.15L55.41 3.15Q55.57 3.15 55.66 3.24L55.66 3.24L55.66 3.24Q55.75 3.33 55.75 3.49L55.75 3.49L55.75 12.75L55.75 12.75Q55.75 12.89 55.66 12.99L55.66 12.99L55.66 12.99Q55.57 13.09 55.41 13.09L55.41 13.09L54.24 13.09ZM57.89 4.62L57.89 4.62Q57.75 4.62 57.65 4.52L57.65 4.52L57.65 4.52Q57.55 4.42 57.55 4.28L57.55 4.28L57.55 3.26L57.55 3.26Q57.55 3.11 57.65 3.01L57.65 3.01L57.65 3.01Q57.75 2.91 57.89 2.91L57.89 2.91L59.18 2.91L59.18 2.91Q59.33 2.91 59.43 3.01L59.43 3.01L59.43 3.01Q59.53 3.11 59.53 3.26L59.53 3.26L59.53 4.28L59.53 4.28Q59.53 4.42 59.42 4.52L59.42 4.52L59.42 4.52Q59.32 4.62 59.18 4.62L59.18 4.62L57.89 4.62ZM57.95 13.09L57.95 13.09Q57.81 13.09 57.71 12.99L57.71 12.99L57.71 12.99Q57.61 12.89 57.61 12.75L57.61 12.75L57.61 6.15L57.61 6.15Q57.61 5.99 57.71 5.90L57.71 5.90L57.71 5.90Q57.81 5.81 57.95 5.81L57.95 5.81L59.14 5.81L59.14 5.81Q59.28 5.81 59.37 5.91L59.37 5.91L59.37 5.91Q59.47 6.01 59.47 6.15L59.47 6.15L59.47 12.75L59.47 12.75Q59.47 12.89 59.37 12.99L59.37 12.99L59.37 12.99Q59.28 13.09 59.14 13.09L59.14 13.09L57.95 13.09ZM64.09 13.23L64.09 13.23Q63.03 13.23 62.31 12.91L62.31 12.91L62.31 12.91Q61.60 12.59 61.26 12.16L61.26 12.16L61.26 12.16Q60.91 11.73 60.91 11.42L60.91 11.42L60.91 11.42Q60.91 11.28 61.01 11.20L61.01 11.20L61.01 11.20Q61.10 11.12 61.22 11.12L61.22 11.12L62.37 11.12L62.37 11.12Q62.48 11.12 62.57 11.23L62.57 11.23L62.57 11.23Q62.64 11.28 62.88 11.49L62.88 11.49L62.88 11.49Q63.13 11.70 63.44 11.82L63.44 11.82L63.44 11.82Q63.76 11.94 64.13 11.94L64.13 11.94L64.13 11.94Q64.69 11.94 65.04 11.72L65.04 11.72L65.04 11.72Q65.39 11.51 65.39 11.10L65.39 11.10L65.39 11.10Q65.39 10.82 65.23 10.65L65.23 10.65L65.23 10.65Q65.07 10.47 64.66 10.32L64.66 10.32L64.66 10.32Q64.25 10.18 63.42 10.00L63.42 10.00L63.42 10.00Q62.23 9.74 61.66 9.23L61.66 9.23L61.66 9.23Q61.10 8.71 61.10 7.85L61.10 7.85L61.10 7.85Q61.10 7.29 61.43 6.80L61.43 6.80L61.43 6.80Q61.77 6.30 62.43 5.98L62.43 5.98L62.43 5.98Q63.10 5.67 64.02 5.67L64.02 5.67L64.02 5.67Q64.97 5.67 65.66 5.97L65.66 5.97L65.66 5.97Q66.35 6.27 66.70 6.69L66.70 6.69L66.70 6.69Q67.06 7.11 67.06 7.43L67.06 7.43L67.06 7.43Q67.06 7.56 66.97 7.65L66.97 7.65L66.97 7.65Q66.88 7.74 66.75 7.74L66.75 7.74L65.70 7.74L65.70 7.74Q65.55 7.74 65.46 7.63L65.46 7.63L65.46 7.63Q65.37 7.56 65.15 7.37L65.15 7.37L65.15 7.37Q64.93 7.18 64.67 7.07L64.67 7.07L64.67 7.07Q64.40 6.96 64.02 6.96L64.02 6.96L64.02 6.96Q63.50 6.96 63.22 7.18L63.22 7.18L63.22 7.18Q62.94 7.41 62.94 7.77L62.94 7.77L62.94 7.77Q62.94 8.02 63.08 8.19L63.08 8.19L63.08 8.19Q63.21 8.36 63.62 8.50L63.62 8.50L63.62 8.50Q64.02 8.65 64.83 8.81L64.83 8.81L64.83 8.81Q67.35 9.30 67.35 11.00L67.35 11.00L67.35 11.00Q67.35 12.00 66.49 12.61L66.49 12.61L66.49 12.61Q65.63 13.23 64.09 13.23L64.09 13.23ZM68.49 14.27L68.49 14.27Q68.38 14.27 68.29 14.18L68.29 14.18L68.29 14.18Q68.21 14.10 68.21 13.97L68.21 13.97L68.21 13.97Q68.21 13.89 68.24 13.82L68.24 13.82L73.00 2.38L73.00 2.38Q73.05 2.27 73.16 2.18L73.16 2.18L73.16 2.18Q73.28 2.09 73.44 2.09L73.44 2.09L74.35 2.09L74.35 2.09Q74.48 2.09 74.56 2.17L74.56 2.17L74.56 2.17Q74.65 2.25 74.65 2.38L74.65 2.38L74.65 2.38Q74.65 2.46 74.62 2.53L74.62 2.53L69.83 13.97L69.83 13.97Q69.79 14.08 69.69 14.18L69.69 14.18L69.69 14.18Q69.58 14.27 69.40 14.27L69.40 14.27L68.49 14.27ZM76.16 12.32L76.16 12.32Q76.05 12.32 75.96 12.24L75.96 12.24L75.96 12.24Q75.88 12.17 75.88 12.04L75.88 12.04L75.88 10.95L75.88 10.95Q75.88 10.78 75.96 10.68L75.96 10.68L75.96 10.68Q76.05 10.57 76.23 10.44L76.23 10.44L79.62 8.18L76.23 5.91L76.23 5.91Q76.05 5.78 75.96 5.68L75.96 5.68L75.96 5.68Q75.88 5.57 75.88 5.39L75.88 5.39L75.88 4.31L75.88 4.31Q75.88 4.17 75.96 4.09L75.96 4.09L75.96 4.09Q76.05 4.02 76.16 4.02L76.16 4.02L76.16 4.02Q76.29 4.02 76.44 4.14L76.44 4.14L81.19 7.38L81.19 7.38Q81.41 7.53 81.50 7.67L81.50 7.67L81.50 7.67Q81.59 7.81 81.59 8.01L81.59 8.01L81.59 8.34L81.59 8.34Q81.59 8.54 81.49 8.68L81.49 8.68L81.49 8.68Q81.40 8.82 81.19 8.96L81.19 8.96L76.44 12.21L76.44 12.21Q76.30 12.32 76.16 12.32L76.16 12.32Z" transform="matrix(4.926108360290527,0,0,4.926108360290527,-2.2660086154937744,-10.295567512512207)"/></g></svg>