<svg data-v-d3f97b9e="" xmlns="http://www.w3.org/2000/svg" viewBox="0 0 415 90"><!----><!----><!----><g data-v-d3f97b9e="" id="7727a900-1dc0-4415-ae3c-056af1f9a68a" fill="black" transform="matrix(5.665722370147705,0,0,5.665722370147705,91.61461639404297,-7.26629114151001)"><path d="M2.79 10.40L4.73 10.40L6.69 14.35L8.46 14.35L6.34 10.23C7.59 9.87 8.25 8.90 8.25 7.52C8.25 5.71 7.17 4.58 5.42 4.58L1.20 4.58L1.20 14.35L2.79 14.35ZM2.79 9.07L2.79 5.96L5.31 5.96C6.10 5.96 6.58 6.40 6.58 7.18L6.58 7.85C6.58 8.64 6.10 9.07 5.31 9.07ZM11.03 5.77C11.66 5.77 11.93 5.43 11.93 4.97L11.93 4.73C11.93 4.27 11.66 3.93 11.03 3.93C10.40 3.93 10.12 4.27 10.12 4.73L10.12 4.97C10.12 5.43 10.40 5.77 11.03 5.77ZM10.26 14.35L11.79 14.35L11.79 7.07L10.26 7.07ZM16.79 14.52C18.19 14.52 19.18 13.86 19.66 12.67L18.49 12.05C18.19 12.78 17.67 13.26 16.79 13.26C15.67 13.26 15.09 12.49 15.09 11.37L15.09 10.07C15.09 8.95 15.67 8.18 16.79 8.18C17.61 8.18 18.13 8.61 18.34 9.28L19.60 8.69C19.17 7.62 18.24 6.90 16.79 6.90C14.69 6.90 13.48 8.39 13.48 10.71C13.48 13.03 14.69 14.52 16.79 14.52ZM21.11 14.35L22.64 14.35L22.64 9.46C22.64 8.62 23.42 8.22 24.22 8.22C25.16 8.22 25.59 8.79 25.59 9.91L25.59 14.35L27.12 14.35L27.12 9.73C27.12 7.94 26.24 6.90 24.75 6.90C23.63 6.90 23.02 7.49 22.71 8.27L22.64 8.27L22.64 3.99L21.11 3.99ZM30.62 14.35L32.20 14.35L32.20 5.98L35.11 5.98L35.11 4.58L27.71 4.58L27.71 5.98L30.62 5.98ZM37.31 5.77C37.94 5.77 38.21 5.43 38.21 4.97L38.21 4.73C38.21 4.27 37.94 3.93 37.31 3.93C36.68 3.93 36.40 4.27 36.40 4.73L36.40 4.97C36.40 5.43 36.68 5.77 37.31 5.77ZM36.54 14.35L38.07 14.35L38.07 7.07L36.54 7.07ZM42.78 14.35L42.78 13.10L41.78 13.10L41.78 3.99L40.25 3.99L40.25 12.84C40.25 13.78 40.77 14.35 41.80 14.35ZM46.69 14.35L46.69 13.10L45.68 13.10L45.68 3.99L44.16 3.99L44.16 12.84C44.16 13.78 44.67 14.35 45.71 14.35ZM48.92 5.77C49.55 5.77 49.81 5.43 49.81 4.97L49.81 4.73C49.81 4.27 49.55 3.93 48.92 3.93C48.29 3.93 48.01 4.27 48.01 4.73L48.01 4.97C48.01 5.43 48.29 5.77 48.92 5.77ZM48.15 14.35L49.67 14.35L49.67 7.07L48.15 7.07ZM54.17 14.52C55.92 14.52 57.05 13.58 57.05 12.18C57.05 11.00 56.34 10.30 54.74 10.07L54.07 9.98C53.30 9.86 52.95 9.60 52.95 9.04C52.95 8.50 53.34 8.13 54.18 8.13C54.96 8.13 55.58 8.51 55.96 8.96L56.90 8.06C56.24 7.34 55.50 6.90 54.18 6.90C52.58 6.90 51.48 7.73 51.48 9.14C51.48 10.49 52.39 11.13 53.87 11.31L54.54 11.40C55.30 11.49 55.58 11.84 55.58 12.31C55.58 12.92 55.13 13.29 54.25 13.29C53.38 13.29 52.72 12.89 52.19 12.25L51.21 13.15C51.90 14 52.79 14.52 54.17 14.52Z"></path></g><!----><g data-v-d3f97b9e="" id="8e523d3b-1aa7-42f0-a8c8-8738472ea9a7" transform="matrix(1.125,0,0,1.125,-13.844237327575684,-9)" stroke="none" fill="black"><path d="M48 43.3c9.7 0 17.7-7.9 17.7-17.7C65.7 15.9 57.7 8 48 8s-17.7 7.9-17.7 17.7c0 9.7 8 17.6 17.7 17.6zM48 12c7.5 0 13.7 6.1 13.7 13.7 0 7.5-6.1 13.7-13.7 13.7-7.5 0-13.7-6.1-13.7-13.7S40.5 12 48 12zM63.4 44.3c-.6 0-1.1.2-1.5.6-3.7 3.6-8.7 5.6-13.9 5.6s-10.1-2-13.9-5.6c-.4-.4-1-.6-1.5-.6-10.9.8-19.5 10-19.5 21V75c0 7.2 5.8 13 13 13h43.7c7.2 0 13-5.8 13-13v-9.7c.1-11-8.5-20.2-19.4-21zM78.9 75c0 5-4 9-9 9H26.1c-5 0-9-4-9-9v-9.7c0-8.6 6.5-15.8 14.9-16.9 4.4 4 10 6.1 16 6.1s11.6-2.2 16-6.1c8.4 1 14.9 8.3 14.9 16.9V75z"></path><path d="M59.1 62.4c-.8-.8-2-.8-2.8 0s-.8 2 0 2.8L60 69l-3.7 3.7c-.8.8-.8 2 0 2.8.4.4.9.6 1.4.6s1-.2 1.4-.6l5.1-5.1c.8-.8.8-2 0-2.8l-5.1-5.2zM51.8 57.1c-1.1-.3-2.2.3-2.5 1.4l-5.6 19.9c-.3 1.1.3 2.2 1.4 2.5.2.1.4.1.5.1.9 0 1.7-.6 1.9-1.5l5.6-19.9c.3-1.1-.3-2.2-1.3-2.5zM39.7 62.4c-.8-.8-2-.8-2.8 0l-5.1 5.1c-.8.8-.8 2 0 2.8l5.1 5.1c.4.4.9.6 1.4.6s1-.2 1.4-.6c.8-.8.8-2 0-2.8L36 69l3.7-3.7c.8-.8.8-2.1 0-2.9z"></path></g><!----></svg>